# xmcd
#
# Track frame offsets: 
#        180
#        24048
#        44496
#        66097
#        84833
#        99682
#        124393
#        139060
#        155031
#        184058
#
# Disc length: 2596 seconds
#
# Revision: 4
# Processed by: cddbd v1.5.1PL2 Copyright (c) Steve Scherf et al.
# Submitted via: ExactAudioCopy v0.95b3
#
DISCID=820a220a
DTITLE=The Mount Moriah Mass Choir and The New Age Community Choir - Har
DTITLE=lem Sunday
DYEAR=1995
DGENRE=Gospel
TTITLE0=Right On To Loving Yourself
TTITLE1=Keep Faith
TTITLE2=Why We Sing
TTITLE3=The Lord Will Make A Way Somehow (Like A Ship)
TTITLE4=The Lord Is My Light
TTITLE5=We Are Not Ashamed
TTITLE6=I'm Blessed
TTITLE7=Jesus, Oh What a Wonderful Child
TTITLE8=Have You Heard About Jesus
TTITLE9=Hallellujah Anyhow
EXTD=
EXTT0=Daniel Damen, Duane Jackson, Kelly Ross and Mass Choir
EXTT1=Daniel Damen, The New Age Community Choir with Ricardo Smith
EXTT2=Daniel Damen, Duane Jackson, Kelly Ross and The New Age Community 
EXTT2=Choir
EXTT3=Duane Jackson and The New Age Community Choir
EXTT4=Daniel Damon and The New Age Community Choir, with Olodum
EXTT5=Kelly Ross and Mass Choir
EXTT6=Daniel Damen and Mass Choir, with Olodum
EXTT7=Joyce Lockette and Mass Choir
EXTT8=Roberta Jones and Mass Choir
EXTT9=Daniel Damen and Mass Choir
PLAYORDER=
